<svg width="12" height="14" viewBox="0 0 12 14" fill="none" xmlns="http://www.w3.org/2000/svg">
<path d="M0.999837 12H10.9998C11.4582 12 11.8332 12.375 11.8332 12.8334C11.8332 13.2917 11.4582 13.6667 10.9998 13.6667H0.999837C0.541504 13.6667 0.166504 13.2917 0.166504 12.8334C0.166504 12.375 0.541504 12 0.999837 12ZM5.17484 8.58336C4.86147 8.89268 4.43843 9.06542 3.99812 9.06386C3.55781 9.06229 3.13601 8.88656 2.82484 8.57503L0.999837 6.75003C0.541504 6.2917 0.549837 5.55003 1.02484 5.10837C1.47484 4.67503 2.1915 4.6917 2.62484 5.12503L3.99984 6.50003L9.35817 1.1417C9.80817 0.691699 10.5332 0.691699 10.9832 1.1417L11.0165 1.17503C11.4665 1.62503 11.4665 2.35837 11.0082 2.80837L5.17484 8.58336Z" fill="currentColor"/>
</svg>
