<svg width="20" height="16" viewBox="0 0 20 16" fill="none" xmlns="http://www.w3.org/2000/svg">
<path d="M-0.103516 3.15789C-0.103516 2.32037 0.22919 1.51715 0.82141 0.924926C1.41363 0.332706 2.21685 0 3.05438 0H16.9457C17.7833 0 18.5865 0.332706 19.1787 0.924926C19.7709 1.51715 20.1036 2.32037 20.1036 3.15789V3.16632L9.99838 8.34274L-0.103516 3.16968V3.15789ZM-0.103516 4.58863V12.8421C-0.103516 13.6796 0.22919 14.4829 0.82141 15.0751C1.41363 15.6673 2.21685 16 3.05438 16H16.9457C17.7833 16 18.5865 15.6673 19.1787 15.0751C19.7709 14.4829 20.1036 13.6796 20.1036 12.8421V4.58611L10.2864 9.61516C10.1972 9.66083 10.0985 9.68464 9.99838 9.68464C9.89823 9.68464 9.79951 9.66083 9.71038 9.61516L-0.103516 4.58863Z" fill="#1B84FF"/>
</svg>
