<svg width="37" height="48" viewBox="0 0 37 48" fill="none" xmlns="http://www.w3.org/2000/svg">
<path fill-rule="evenodd" clip-rule="evenodd" d="M22.7861 2.05954V4.11908L23.6695 4.54405C28.8836 7.05281 32.6747 12.4705 33.0923 18.01C33.3607 21.5713 32.4111 25.644 30.551 28.9093C27.8537 33.6444 22.1973 36.7854 16.3641 36.7875L15.1467 36.7879L15.1226 20.8023L15.0984 4.81679L13.5237 7.02655C12.6576 8.24197 11.1389 10.3752 10.1489 11.7671C9.15882 13.159 8.29665 14.3523 8.23296 14.4188C8.1408 14.5149 7.74906 14.0792 6.32201 12.293L4.52701 10.0462L4.35836 10.2621C3.42762 11.4529 2.21736 13.7061 1.68724 15.2349C1.1217 16.8658 0.974341 17.8211 0.970044 19.8846C0.964314 22.5719 1.29465 23.9989 2.48409 26.4263C3.04562 27.5721 3.87227 28.8615 4.04541 28.8615C4.08561 28.8615 4.71237 28.2665 5.43817 27.5394L6.75778 26.2172L6.29441 25.5075C5.10058 23.6788 4.5632 21.0936 4.82764 18.4521C4.88819 17.8481 4.96764 17.3261 5.00432 17.2923C5.04099 17.2586 5.75857 18.0852 6.59896 19.1292C7.43936 20.1733 8.15808 21.0174 8.19619 21.0052C8.23429 20.9928 8.95417 20.043 9.7958 18.8944L11.3262 16.8061V28.4706V40.1352L11.545 40.2183C12.6165 40.6257 16.0194 40.8064 18.1066 40.5667C22.4007 40.0734 25.5253 38.8895 28.5638 36.6042C31.3817 34.4848 33.9255 31.4028 35.1089 28.6742C36.3724 25.7611 36.9165 23.3129 36.9904 20.207C37.0756 16.6319 36.6036 14.1827 35.2508 11.1776C34.2261 8.90187 33.0084 7.16636 31.104 5.26774C29.6681 3.8363 28.4938 2.91559 26.7723 1.87179C25.6946 1.21828 23.6039 0.205323 23.0419 0.0641754L22.7861 0V2.05954ZM17.0561 19.6118V34.9054L17.7114 34.8445C20.1474 34.6181 23.1195 33.5707 24.7667 32.358C26.7994 30.8616 28.9573 28.2968 29.8996 26.2575C30.174 25.6637 30.808 23.9091 30.808 23.7437C30.808 23.7221 29.9118 23.7045 28.8164 23.7045H26.8248L26.3276 24.7273C26.0542 25.2896 25.6317 26.031 25.3887 26.3746C24.8018 27.2046 23.6388 28.4027 22.9293 28.9082C22.3545 29.3178 21.2537 29.912 21.0699 29.912C21.0031 29.912 20.9716 26.6461 20.9716 19.7413C20.9716 14.1475 20.9908 9.57065 21.0142 9.57065C21.0377 9.57065 21.3174 9.72336 21.6359 9.90996C23.8079 11.183 25.8024 13.3449 26.4848 15.1657L26.7493 15.8715L28.7726 15.8726L30.7959 15.8736L30.6054 15.1863C29.4463 11.0035 26.1862 7.55141 21.7017 5.75822C20.8794 5.42942 17.3507 4.31819 17.1289 4.31819C17.0889 4.31819 17.0561 11.2003 17.0561 19.6118ZM2.89044 44.9691C2.85539 45.004 2.82674 45.6916 2.82674 46.4971V47.9614H3.2054H3.58405L3.61127 46.9825L3.63848 46.0036L3.87131 46.5766C4.13575 47.2275 4.18646 47.2803 4.49082 47.2221C4.65412 47.1909 4.77311 47.0301 4.95714 46.5919L5.20429 46.0036L5.20926 46.9825L5.21422 47.9614H5.59622H5.97822V46.4334V44.9054H5.5647H5.1511L4.79278 45.6933L4.43447 46.4811L4.06661 45.6933L3.69874 44.9054H3.32639C3.12164 44.9054 2.92539 44.934 2.89044 44.9691ZM7.41071 45.0727C7.00732 45.2742 6.64671 45.9274 6.64671 46.4567C6.64671 47.5603 7.56217 48.2167 8.7072 47.9342C9.15739 47.8231 9.17868 47.8028 9.20705 47.46C9.22338 47.2631 9.21364 47.1019 9.18556 47.1019C9.15739 47.1019 8.99361 47.1876 8.82161 47.2925C8.44783 47.5204 8.25578 47.5308 7.89145 47.3422C7.37337 47.0744 7.27596 46.1655 7.71535 45.6978C7.97606 45.4202 8.48727 45.4077 8.91482 45.6683L9.22519 45.8576V45.4863C9.22519 45.1558 9.19225 45.1035 8.92447 45.0102C8.47867 44.8549 7.78993 44.8832 7.41071 45.0727ZM11.3023 44.9585C11.263 44.9994 11.2307 45.6967 11.2307 46.5082V47.9836L12.1637 47.9461C12.9204 47.9157 13.1621 47.8683 13.4427 47.6947C14.3582 47.129 14.306 45.7197 13.3491 45.1608C13.0166 44.9666 11.4444 44.8112 11.3023 44.9585ZM14.4135 44.977C14.4369 45.0165 14.6973 45.4476 14.9921 45.9353C15.4841 46.7493 15.5281 46.8689 15.5281 47.3917V47.9614H15.9101H16.2921V47.3687C16.2921 46.8205 16.3317 46.7097 16.8174 45.8958C17.1063 45.4116 17.3426 44.9908 17.3426 44.9605C17.3426 44.9302 17.1736 44.9054 16.9671 44.9054C16.6068 44.9054 16.5788 44.9286 16.2766 45.4784C16.1033 45.7935 15.9393 46.0509 15.912 46.0502C15.8847 46.0497 15.7211 45.7918 15.5483 45.4772C15.2362 44.9091 15.2313 44.9054 14.8025 44.9054C14.5651 44.9054 14.3901 44.9376 14.4135 44.977ZM17.8201 46.4334V47.9614H18.1544H18.4886V46.9586C18.4886 46.4071 18.5209 45.9575 18.5602 45.9595C18.5996 45.9615 18.8949 46.402 19.2163 46.9384C19.7948 47.9036 19.8048 47.9139 20.1952 47.9429L20.5896 47.9723V46.4388V44.9054H20.259H19.9283L19.9009 45.7888L19.8734 46.6721L19.3004 45.7891L18.7274 44.9061L18.2738 44.9058L17.8201 44.9054V46.4334ZM22.1747 44.9857C22.1182 45.0773 21.0671 47.8645 21.0671 47.9231C21.0671 47.9442 21.2348 47.9614 21.4397 47.9614C21.768 47.9614 21.8243 47.9272 21.9123 47.6749C22.0085 47.3988 22.0333 47.3884 22.5951 47.3884C23.1569 47.3884 23.1816 47.3988 23.2779 47.6749C23.3659 47.9272 23.4222 47.9614 23.7504 47.9614C23.9554 47.9614 24.1231 47.9397 24.1231 47.9131C24.1231 47.8276 23.1776 45.2926 23.0723 45.0958C22.9971 44.9554 22.8722 44.9054 22.5974 44.9054C22.3923 44.9054 22.202 44.9415 22.1747 44.9857ZM24.6643 44.9691C24.6292 45.004 24.6006 45.6916 24.6006 46.4971V47.9614H24.9826H25.3646L25.3696 46.9825L25.3747 46.0036L25.6636 46.6363C25.9083 47.1724 25.9891 47.269 26.1931 47.269C26.3958 47.269 26.4812 47.1692 26.7348 46.6363L27.0358 46.0036L27.063 46.9825L27.0902 47.9614H27.4211H27.7521V46.4334V44.9054H27.3352H26.9183L26.6046 45.6248C26.4322 46.0205 26.2615 46.3625 26.2255 46.3848C26.1895 46.407 26.0188 46.0833 25.8463 45.6653L25.5325 44.9054H25.1302C24.9089 44.9054 24.6992 44.934 24.6643 44.9691ZM28.4377 45.1644C28.462 45.3754 28.5234 45.4369 28.7342 45.4612L29 45.4917L28.9729 46.4639L28.9458 47.4361L28.6832 47.4663C28.4769 47.4901 28.4205 47.5464 28.4205 47.7289C28.4205 47.9589 28.4303 47.9614 29.3278 47.9614C30.2319 47.9614 30.235 47.9605 30.235 47.7226C30.235 47.5316 30.1873 47.4839 29.9963 47.4839H29.7575V46.4878C29.7575 45.5275 29.7653 45.4906 29.9724 45.4612C30.1298 45.4388 30.1873 45.3667 30.1873 45.1919C30.1873 44.9563 30.1756 44.9528 29.2972 44.9256L28.4072 44.898L28.4377 45.1644ZM31.4765 45.0727C31.0731 45.2742 30.7125 45.9274 30.7125 46.4567C30.7125 47.5697 31.6209 48.2185 32.7791 47.9326C33.2225 47.8232 33.2446 47.8022 33.2729 47.46C33.2892 47.2631 33.2795 47.1019 33.2514 47.1019C33.2232 47.1019 33.0594 47.1876 32.8874 47.2925C32.5136 47.5204 32.3216 47.5308 31.9573 47.3422C31.4392 47.0744 31.3418 46.1655 31.7812 45.6978C32.0419 45.4202 32.5531 45.4077 32.9806 45.6683L33.291 45.8576V45.4863C33.291 45.1558 33.2581 45.1035 32.9903 45.0102C32.5445 44.8549 31.8558 44.8832 31.4765 45.0727ZM34.2375 45.1232C33.8477 45.3859 33.6948 45.7551 33.8236 46.123C33.9224 46.4049 34.3021 46.6333 35.0091 46.8358C35.453 46.9629 35.6326 47.2377 35.3775 47.3993C35.1529 47.5417 34.586 47.4906 34.1983 47.2929C33.9922 47.1878 33.8112 47.1019 33.7961 47.1019C33.7809 47.1019 33.7685 47.2533 33.7685 47.4385C33.7685 47.8535 34.0166 47.9768 34.8754 47.9887C35.8712 48.0024 36.4821 47.4663 36.2549 46.778C36.1435 46.4403 35.8284 46.2524 35.0379 46.0523C34.5929 45.9397 34.5037 45.8557 34.5902 45.6302C34.666 45.4325 35.5233 45.4236 35.8934 45.6166C36.1557 45.7534 36.156 45.7532 36.156 45.4226C36.156 45.0177 35.9297 44.9054 35.1134 44.9054C34.6962 44.9054 34.4815 44.9588 34.2375 45.1232ZM12.0663 45.5332C12.027 45.573 11.9947 46.0068 11.9947 46.4971V47.3884H12.3688C12.8762 47.3884 13.0279 47.3167 13.1919 46.9995C13.5441 46.3184 13.2218 45.6046 12.5197 45.5113C12.3097 45.4834 12.1056 45.4933 12.0663 45.5332ZM22.473 46.0514C22.1555 46.801 22.1578 46.8154 22.5951 46.8154C23.0308 46.8154 23.0232 46.8568 22.7345 46.0514L22.6147 45.7171L22.473 46.0514Z" fill="#1B84FF"/>
</svg>
