<svg width="16" height="18" viewBox="0 0 16 18" fill="none" xmlns="http://www.w3.org/2000/svg">
<path d="M8.3999 9C9.39446 9 10.3483 8.60491 11.0516 7.90165C11.7548 7.19839 12.1499 6.24456 12.1499 5.25C12.1499 4.25544 11.7548 3.30161 11.0516 2.59835C10.3483 1.89509 9.39446 1.5 8.3999 1.5C7.40534 1.5 6.45151 1.89509 5.74825 2.59835C5.04499 3.30161 4.6499 4.25544 4.6499 5.25C4.6499 6.24456 5.04499 7.19839 5.74825 7.90165C6.45151 8.60491 7.40534 9 8.3999 9ZM8.3999 10.25C7.07382 10.25 5.80205 9.72322 4.86437 8.78553C3.92669 7.84785 3.3999 6.57608 3.3999 5.25C3.3999 3.92392 3.92669 2.65215 4.86437 1.71447C5.80205 0.776784 7.07382 0.25 8.3999 0.25C9.72598 0.25 10.9978 0.776784 11.9354 1.71447C12.8731 2.65215 13.3999 3.92392 13.3999 5.25C13.3999 6.57608 12.8731 7.84785 11.9354 8.78553C10.9978 9.72322 9.72598 10.25 8.3999 10.25ZM14.6499 16.5V14.625C14.6499 14.1277 14.4524 13.6508 14.1007 13.2992C13.7491 12.9475 13.2722 12.75 12.7749 12.75H4.0249C3.52762 12.75 3.05071 12.9475 2.69908 13.2992C2.34745 13.6508 2.1499 14.1277 2.1499 14.625V16.5C2.1499 16.6658 2.08405 16.8247 1.96684 16.9419C1.84963 17.0592 1.69066 17.125 1.5249 17.125C1.35914 17.125 1.20017 17.0592 1.08296 16.9419C0.96575 16.8247 0.899902 16.6658 0.899902 16.5V14.625C0.899902 13.7962 1.22914 13.0013 1.81519 12.4153C2.40124 11.8292 3.1961 11.5 4.0249 11.5H12.7749C13.6037 11.5 14.3986 11.8292 14.9846 12.4153C15.5707 13.0013 15.8999 13.7962 15.8999 14.625V16.5C15.8999 16.6658 15.8341 16.8247 15.7168 16.9419C15.5996 17.0592 15.4407 17.125 15.2749 17.125C15.1091 17.125 14.9502 17.0592 14.833 16.9419C14.7157 16.8247 14.6499 16.6658 14.6499 16.5Z" fill="currentColor"/>
</svg>
