<svg width="18" height="18" viewBox="0 0 18 18" fill="none" xmlns="http://www.w3.org/2000/svg">
<path fill-rule="evenodd" clip-rule="evenodd" d="M0 0H1.125V16.875H18V18H0V0ZM16.6691 3.50212C16.7263 3.54893 16.7738 3.60656 16.8087 3.67171C16.8436 3.73686 16.8653 3.80825 16.8726 3.8818C16.88 3.95536 16.8727 4.02963 16.8513 4.10038C16.8299 4.17113 16.7947 4.23697 16.7479 4.29413L11.6854 10.4816C11.6356 10.5424 11.5737 10.592 11.5036 10.6274C11.4335 10.6627 11.3568 10.683 11.2783 10.6869C11.1999 10.6909 11.1216 10.6783 11.0483 10.6501C10.975 10.6219 10.9084 10.5787 10.8529 10.5233L7.9425 7.61287L3.8295 13.2682C3.73953 13.3827 3.60871 13.4577 3.46453 13.4777C3.32036 13.4977 3.17406 13.461 3.05637 13.3753C2.93868 13.2897 2.85877 13.1618 2.83344 13.0184C2.8081 12.8751 2.83931 12.7276 2.9205 12.6068L7.4205 6.41925C7.46826 6.35345 7.52972 6.29879 7.60065 6.25904C7.67157 6.21928 7.75027 6.19537 7.83132 6.18895C7.91237 6.18254 7.99385 6.19377 8.07014 6.22187C8.14644 6.24998 8.21573 6.29429 8.27325 6.35175L11.2084 9.288L15.8771 3.58088C15.9239 3.52367 15.9816 3.47625 16.0467 3.44133C16.1119 3.4064 16.1832 3.38467 16.2568 3.37735C16.3304 3.37004 16.4046 3.37729 16.4754 3.3987C16.5461 3.42011 16.612 3.45526 16.6691 3.50212Z" fill="currentColor"/>
</svg>
