<svg width="18" height="14" viewBox="0 0 18 14" fill="none" xmlns="http://www.w3.org/2000/svg">
<path d="M17.3953 6.65312L13.8281 1.30703C13.7146 1.1358 13.5604 0.995327 13.3794 0.898135C13.1984 0.800944 12.9961 0.750053 12.7906 0.75H1.25C0.918479 0.75 0.600537 0.881696 0.366116 1.11612C0.131696 1.35054 0 1.66848 0 2V12C0 12.3315 0.131696 12.6495 0.366116 12.8839C0.600537 13.1183 0.918479 13.25 1.25 13.25H12.7906C12.9959 13.2496 13.198 13.1987 13.379 13.1017C13.5599 13.0046 13.7142 12.8645 13.8281 12.6938L17.393 7.34688C17.4618 7.2444 17.4988 7.12382 17.4992 7.00036C17.4997 6.87689 17.4635 6.75606 17.3953 6.65312Z" fill="currentColor"/>
</svg>
